<?xml version="1.0" encoding="UTF-8" standalone="no"?>
<!-- Uploaded to: SVG Repo, www.svgrepo.com, Generator: SVG Repo Mixer Tools -->

<svg
   height="392.05939"
   width="800"
   version="1.1"
   id="Layer_1"
   viewBox="0 0 512 250.91801"
   xml:space="preserve"
   sodipodi:docname="logo.svg"
   inkscape:version="1.2.2 (b0a8486541, 2022-12-01)"
   xmlns:inkscape="http://www.inkscape.org/namespaces/inkscape"
   xmlns:sodipodi="http://sodipodi.sourceforge.net/DTD/sodipodi-0.dtd"
   xmlns="http://www.w3.org/2000/svg"
   xmlns:svg="http://www.w3.org/2000/svg"><defs
   id="defs37" />
    <sodipodi:namedview
   id="namedview35"
   pagecolor="#ffffff"
   bordercolor="#000000"
   borderopacity="0.25"
   inkscape:showpageshadow="2"
   inkscape:pageopacity="0.0"
   inkscape:pagecheckerboard="0"
   inkscape:deskcolor="#d1d1d1"
   showgrid="false"
   inkscape:zoom="0.834386"
   inkscape:cx="529.1316"
   inkscape:cy="89.287212"
   inkscape:window-width="1862"
   inkscape:window-height="1131"
   inkscape:window-x="58"
   inkscape:window-y="32"
   inkscape:window-maximized="1"
   inkscape:current-layer="Layer_1"
   shape-rendering="auto" />
    
    
    
    
    <g
   id="g318"
   transform="translate(0,-130.541)"><path
     style="fill:#f1f1f1"
     d="M 483.46,381.459 H 28.54 C 12.778,381.459 0,368.681 0,352.919 V 159.081 c 0,-15.762 12.778,-28.54 28.54,-28.54 h 454.92 c 15.762,0 28.54,12.778 28.54,28.54 v 193.838 c 0,15.762 -12.778,28.54 -28.54,28.54 z"
     id="path2" /><path
     style="fill:#d7d7d7"
     d="M 483.46,130.541 H 256 v 250.917 h 227.46 c 15.762,0 28.54,-12.778 28.54,-28.54 V 159.081 c 0,-15.762 -12.778,-28.54 -28.54,-28.54 z"
     id="path4" /><g
     id="g20">
	<path
   style="fill:#444444"
   d="m 80.243,281.804 22.146,-59.336 h 13.204 l 22.064,59.336 H 120.44 l -3.593,-11.617 h -15.795 l -3.511,11.617 z m 28.748,-42.372 -5.515,19.89 h 10.781 z"
   id="path6" />
        <path
   style="fill:#444444"
   d="M 171.247,281.804 H 142.08 v -59.336 h 34.432 c 8.358,0 13.539,7.689 13.539,15.21 0,5.515 -2.842,11.198 -8.525,13.706 6.77,2.006 11.031,6.936 11.031,15.21 0.001,10.697 -9.609,15.21 -21.31,15.21 z m -12.87,-45.464 v 9.109 h 11.115 c 2.173,0 4.43,-0.919 4.43,-4.597 0,-3.259 -1.839,-4.513 -3.928,-4.513 h -11.617 z m 13.456,21.813 h -13.456 v 9.945 h 12.87 c 2.675,0 4.764,-1.755 4.764,-4.847 0,-2.926 -1.755,-5.098 -4.178,-5.098 z"
   id="path8" />
        <path
   style="fill:#444444"
   d="m 225.062,222.133 c 10.531,0 18.887,5.181 22.648,12.954 l -12.452,8.859 c -1.922,-5.767 -6.853,-7.355 -10.531,-7.355 -8.19,0 -11.784,8.106 -11.784,15.545 0,8.273 4.43,15.712 11.951,15.712 3.761,0 8.44,-1.922 10.112,-7.27 l 13.288,7.939 c -3.342,8.775 -14.29,13.79 -23.735,13.79 -16.548,0 -28.164,-15.461 -28.164,-30.671 0.002,-14.46 10.615,-29.503 28.667,-29.503 z"
   id="path10" />
        <path
   style="fill:#444444"
   d="m 253.471,265.842 v -14.207 h 26.159 v 14.207 z"
   id="path12" />
        <path
   style="fill:#444444"
   d="m 327.93,267.597 v 14.207 h -38.694 v -14.207 h 11.867 v -30.254 c -1.839,2.591 -9.276,7.187 -13.789,7.187 v -14.541 c 6.017,0 13.623,-7.605 13.789,-7.939 h 16.214 v 45.547 z"
   id="path14" />
        <path
   style="fill:#444444"
   d="m 332.94,281.804 c 0,-15.378 1.839,-22.398 14.542,-28.415 6.936,-3.259 12.954,-6.184 12.954,-12.285 0,-4.011 -2.59,-5.265 -5.432,-5.265 -4.346,0 -9.109,2.925 -12.285,6.017 l -9.778,-10.614 c 4.43,-5.014 13.456,-9.444 24.32,-9.444 13.539,0 21.31,6.853 21.31,19.054 0,9.194 -4.345,13.372 -11.784,17.717 -4.764,2.758 -10.195,5.433 -10.195,9.026 h 22.063 v 14.207 H 332.94 Z"
   id="path16" />
        <path
   style="fill:#444444"
   d="m 385.585,272.861 8.106,-11.031 c 0.668,0.668 3.009,6.184 10.614,6.184 3.761,0 7.437,-1.337 7.437,-4.847 0,-4.346 -5.515,-5.683 -15.377,-5.683 h -2.758 v -13.121 h 2.675 c 7.355,0 13.956,-1.421 13.956,-5.6 0,-3.092 -3.511,-3.176 -4.43,-3.176 -6.268,0 -9.443,3.511 -10.948,5.433 l -10.029,-11.784 c 4.429,-4.931 13.372,-7.522 20.893,-7.522 12.368,0 21.562,7.02 21.562,16.213 0,6.436 -4.513,10.864 -10.781,12.118 7.27,1.17 11.784,7.856 11.784,15.294 0,12.452 -12.536,17.215 -23.651,17.215 -8.856,0.002 -15.209,-3.006 -19.053,-9.693 z"
   id="path18" />
</g><g
     id="g26"
     style="fill:#ff7f2a">
	<path
   style="fill:#ff7f2a"
   d="m 512,159.081 c 0,-15.762 -12.778,-28.54 -28.54,-28.54 H 28.54 C 12.778,130.541 0,143.319 0,159.081 v 27.354 h 512 z"
   id="path22" />
        <path
   style="fill:#ff7f2a"
   d="m 0,325.565 v 27.354 c 0,15.762 12.778,28.54 28.54,28.54 h 454.92 c 15.762,0 28.54,-12.778 28.54,-28.54 v -27.354 z"
   id="path24" />
</g><g
     id="g32"
     style="fill:#93ac93">
	<path
   style="fill:#93ac93"
   d="m 512,159.081 c 0,-15.762 -12.778,-28.54 -28.54,-28.54 H 256 c 0,11.374 0,55.894 0,55.894 h 256 z"
   id="path28" />
        <path
   style="fill:#93ac93"
   d="m 512,352.919 c 0,15.762 -12.778,28.54 -28.54,28.54 H 256 c 0,-11.374 0,-55.894 0,-55.894 h 256 z"
   id="path30" />
</g></g>
</svg>
